<svg width="45" height="49" viewBox="0 0 45 49" fill="none" xmlns="http://www.w3.org/2000/svg">
<path d="M8.74417 38.2587C10.5143 38.2587 12.2901 38.3513 14.0518 38.2418C22.5126 37.7195 28.5076 29.6741 26.5859 21.404C26.3671 20.4604 26.5242 19.8847 27.2228 19.2304C28.9228 17.641 30.5667 15.9898 32.1629 14.2936C32.8783 13.5326 33.243 13.513 33.689 14.5071C36.7917 21.4461 36.8366 28.3795 33.2486 35.0967C28.9957 43.0579 22.0975 46.9809 13.1541 47.3179C9.80458 47.4442 6.44381 47.3151 3.09147 47.3656C2.19377 47.3797 1.84871 47.1466 1.87116 46.2058C1.92446 43.9228 1.92726 41.6369 1.86274 39.3567C1.83469 38.43 2.22463 38.2783 3.01572 38.2952C4.92614 38.3345 6.83656 38.3092 8.74697 38.3092C8.74697 38.2924 8.74697 38.2783 8.74697 38.2615L8.74417 38.2587Z" fill="#BF4E30"/>
<path d="M8.78905 10.6177C6.64579 10.6177 4.82795 10.5897 3.01291 10.6318C2.21901 10.6514 1.83468 10.4914 1.85993 9.57029C1.92165 7.24511 1.88518 4.91432 1.88237 2.58914C1.88237 2.04435 1.8936 1.5445 2.65664 1.56977C7.76231 1.74949 12.9044 1.12327 17.9736 2.14545C19.9879 2.55264 21.8983 3.28557 23.7273 4.23755C24.4427 4.60823 24.7709 4.86658 24.0051 5.59671C22.1844 7.32936 20.4367 9.13502 18.675 10.9266C18.3608 11.2468 18.0746 11.5079 17.5949 11.3394C14.6129 10.2892 11.5158 10.7104 8.78625 10.6177H8.78905Z" fill="#BF4E30"/>
<path d="M11.081 11.8814H2.104V37.2028H11.081V11.8814Z" fill="#BF4E30"/>
<path d="M42.3069 1.8562H30.0084L12.0573 20.789V28.1801L18.7395 35.0602L20.2572 35.2792L22.608 33.3079L24.7316 29.792L24.4651 28.0987L20.4816 23.7348L42.3069 1.8562Z" fill="#AAC0AA"/>
<path d="M42.6632 47.3319H30.85L27.4696 44.344L29.6213 42.6844L31.9637 40.3396L33.0858 38.2643L33.8545 38.1211L42.6632 47.3319Z" fill="#AAC0AA"/>
</svg>
